<svg xmlns="http://www.w3.org/2000/svg" viewBox="0 0 16.903 16.902">
    <g id="Сгруппировать_239" data-name="Сгруппировать 239" transform="translate(-1259.153 -589)">
        <path id="Контур_12" data-name="Контур 12" d="M140.533,4.916,135.955.162a.528.528,0,0,0-.909.367V2.818h-.176A6.875,6.875,0,0,0,128,9.685v1.056a.521.521,0,0,0,.411.5.472.472,0,0,0,.116.014.546.546,0,0,0,.482-.3,5.777,5.777,0,0,1,5.2-3.212h.837v2.289a.528.528,0,0,0,.909.366l4.578-4.754a.528.528,0,0,0,0-.733Zm0,0" transform="translate(1135.375 589)" fill="#a6a6a6"/>
        <path id="Контур_13" data-name="Контур 13" d="M14.794,99.425H2.117A2.115,2.115,0,0,1,0,97.313v-9.86A2.115,2.115,0,0,1,2.117,85.34H4.23a.7.7,0,1,1,0,1.408H2.117a.7.7,0,0,0-.7.7v9.86a.7.7,0,0,0,.7.7H14.794a.7.7,0,0,0,.7-.7V91.679a.7.7,0,1,1,1.409,0v5.634a2.115,2.115,0,0,1-2.113,2.113Zm0,0" transform="translate(1259.149 506.477)" fill="#a6a6a6"/>
    </g>
</svg>
